<svg aria-hidden="true" style="position: absolute; width: 0; height: 0; overflow: hidden;" version="1.1" xmlns="http://www.w3.org/2000/svg" xmlns:xlink="http://www.w3.org/1999/xlink">
<defs>
<symbol id="icon-bulb" viewBox="0 0 32 32">
<path d="M18.723 19.994c1.266-0.339 2.33-1.062 3.090-2.034l0.010-0.013c0.969-1.24 1.391-2.782 1.188-4.343-0.209-1.6-1.043-2.972-2.246-3.886l-0.014-0.010c-1.215-0.922-2.724-1.325-4.249-1.133s-2.888 0.954-3.838 2.148c-0.814 1.023-1.253 2.253-1.27 3.557-0.026 2.117-0.74 4.177-2.009 5.802l-1.389 1.777c-0.239 0.305-0.384 0.694-0.384 1.117 0 0.579 0.271 1.095 0.693 1.427l0.004 0.003 1.33 1.039c0.305 0.239 0.694 0.384 1.117 0.384 0.579 0 1.095-0.271 1.427-0.693l0.003-0.004 1.389-1.777c1.283-1.643 3.060-2.808 5.149-3.361zM12.141 14.288c0.014-1.136 0.397-2.208 1.107-3.1 1.706-2.143 4.869-2.54 7.050-0.885 1.094 0.831 1.794 2.036 1.97 3.397 0.028 0.2 0.044 0.431 0.044 0.666 0 1.183-0.407 2.27-1.088 3.131l0.008-0.011c-0.671 0.858-1.599 1.488-2.667 1.776l-0.035 0.008c-2.201 0.583-4.087 1.794-5.465 3.508l-3.007-2.349c1.316-1.735 2.054-3.91 2.082-6.141zM8.741 22.119l0.186-0.238 2.742 2.698-0.073 0.093c-0.039 0.049-0.080 0.093-0.124 0.132l-0.001 0.001-2.73-2.686zM9.391 21.287l0.209-0.267 3.011 2.353-0.479 0.613-2.742-2.698zM8.769 23.816c-0.25-0.197-0.41-0.5-0.41-0.84 0-0.060 0.005-0.119 0.014-0.176l-0.001 0.006 2.31 2.273c-0.223-0.015-0.423-0.097-0.586-0.225l0.002 0.002-1.33-1.039z"></path>
<path d="M13.966 12.523c0.098-0.173 0.21-0.339 0.335-0.496 0.051-0.063 0.081-0.145 0.081-0.233 0-0.207-0.167-0.374-0.374-0.374-0.118 0-0.223 0.055-0.292 0.14l-0.001 0.001c-0.139 0.173-0.272 0.367-0.389 0.571l-0.012 0.022c-0.035 0.056-0.055 0.123-0.055 0.196 0 0.207 0.168 0.374 0.374 0.374 0.144 0 0.268-0.081 0.331-0.2l0.001-0.002zM12.203 18.353c0.063 0.049 0.143 0.079 0.23 0.079 0.161 0 0.298-0.102 0.351-0.245l0.001-0.003c0.429-1.152 0.685-2.484 0.702-3.872l0-0.008c0.003-0.219 0.024-0.438 0.065-0.651 0.004-0.021 0.006-0.045 0.006-0.069 0-0.207-0.167-0.374-0.374-0.374-0.182 0-0.334 0.13-0.367 0.302l-0 0.002c-0.048 0.255-0.074 0.517-0.077 0.78-0.016 1.308-0.256 2.556-0.682 3.713l0.025-0.077c-0.014 0.038-0.022 0.081-0.022 0.127 0 0.119 0.056 0.226 0.143 0.294l0.001 0.001zM19.534 17.784c-0.065-0.117-0.187-0.194-0.328-0.194-0.066 0-0.128 0.017-0.181 0.047l0.002-0.001c-0.263 0.144-0.545 0.256-0.839 0.334-0.161 0.044-0.278 0.189-0.278 0.361 0 0.206 0.167 0.374 0.374 0.374 0.034 0 0.067-0.005 0.098-0.013l-0.003 0.001c0.383-0.103 0.718-0.24 1.030-0.413l-0.023 0.012c0.181-0.099 0.247-0.326 0.148-0.507zM19.528 11.409c1.625 1.269 1.914 3.624 0.644 5.249-0.072 0.092-0.149 0.182-0.229 0.267-0.063 0.067-0.102 0.157-0.102 0.256 0 0.207 0.167 0.374 0.374 0.374 0.107 0 0.204-0.045 0.272-0.118l0-0c0.092-0.097 0.181-0.201 0.266-0.309l0.008-0.010c1.523-1.949 1.176-4.775-0.773-6.298-0.063-0.049-0.143-0.079-0.23-0.079-0.207 0-0.374 0.167-0.374 0.374 0 0.119 0.056 0.226 0.143 0.294l0.001 0.001zM21.214 9.251c0.163 0.127 0.398 0.099 0.525-0.064l1.289-1.65c0.049-0.063 0.079-0.143 0.079-0.23 0-0.207-0.167-0.374-0.374-0.374-0.119 0-0.226 0.056-0.294 0.143l-0.001 0.001-1.289 1.65c-0.049 0.063-0.079 0.143-0.079 0.23 0 0.119 0.056 0.226 0.143 0.294l0.001 0.001zM17.778 7.504c-0.002 0.016-0.004 0.034-0.004 0.052 0 0.207 0.167 0.374 0.374 0.374 0.188 0 0.344-0.139 0.37-0.32l0-0.002 0.291-2.073c0.002-0.016 0.004-0.034 0.004-0.052 0-0.207-0.167-0.374-0.374-0.374-0.188 0-0.344 0.139-0.37 0.32l-0 0.002-0.291 2.073zM20.908 22.622l-0.784-1.941c-0.057-0.138-0.191-0.234-0.347-0.234-0.206 0-0.374 0.167-0.374 0.374 0 0.050 0.010 0.099 0.028 0.142l-0.001-0.003 0.784 1.941c0.057 0.138 0.191 0.234 0.347 0.234 0.206 0 0.374-0.167 0.374-0.374 0-0.050-0.010-0.099-0.028-0.142l0.001 0.003zM13.463 6.192l0.784 1.941c0.057 0.138 0.191 0.234 0.347 0.234 0.206 0 0.374-0.167 0.374-0.374 0-0.050-0.010-0.099-0.028-0.143l0.001 0.003-0.784-1.941c-0.057-0.138-0.191-0.234-0.347-0.234-0.206 0-0.374 0.167-0.374 0.374 0 0.050 0.010 0.099 0.028 0.143l-0.001-0.003zM24.517 19.661l-1.65-1.289c-0.063-0.049-0.143-0.079-0.23-0.079-0.207 0-0.374 0.167-0.374 0.374 0 0.119 0.056 0.226 0.143 0.294l0.001 0.001 1.65 1.289c0.061 0.045 0.138 0.073 0.221 0.073 0.207 0 0.374-0.168 0.374-0.374 0-0.115-0.052-0.219-0.134-0.287l-0.001-0zM12.029 10.379c0.049-0.063 0.079-0.143 0.079-0.23 0-0.119-0.056-0.226-0.143-0.294l-0.001-0.001-1.65-1.289c-0.063-0.049-0.143-0.079-0.23-0.079-0.207 0-0.374 0.167-0.374 0.374 0 0.119 0.056 0.226 0.143 0.294l0.001 0.001 1.65 1.289c0.163 0.127 0.398 0.099 0.525-0.064zM23.807 15.665c0.050 0.039 0.11 0.066 0.178 0.075l2.073 0.291c0.016 0.002 0.034 0.004 0.052 0.004 0.206 0 0.374-0.167 0.374-0.374 0-0.188-0.139-0.344-0.32-0.37l-0.002-0-2.073-0.291c-0.016-0.002-0.034-0.004-0.052-0.004-0.206 0-0.374 0.167-0.374 0.374 0 0.119 0.056 0.226 0.143 0.294l0.001 0.001zM10.387 13.074l-2.073-0.291c-0.016-0.002-0.034-0.004-0.052-0.004-0.207 0-0.374 0.167-0.374 0.374 0 0.188 0.139 0.344 0.32 0.37l0.002 0 2.073 0.291c0.016 0.002 0.034 0.004 0.052 0.004 0.207 0 0.374-0.167 0.374-0.374 0-0.188-0.139-0.344-0.32-0.37l-0.002-0zM23.253 11.956c0.057 0.138 0.191 0.234 0.347 0.234 0.051 0 0.099-0.010 0.143-0.028l-0.002 0.001 1.941-0.785c0.138-0.057 0.234-0.191 0.234-0.347 0-0.206-0.167-0.374-0.374-0.374-0.050 0-0.099 0.010-0.142 0.028l0.003-0.001-1.941 0.784c-0.138 0.057-0.234 0.191-0.234 0.347 0 0.050 0.010 0.099 0.028 0.143l-0.001-0.002z"></path>
</symbol>
<symbol id="icon-burger-btn" viewBox="0 0 57 32">
<path d="M1.684 0h53.101c0.93 0 1.684 0.754 1.684 1.684v2.279c0 0.93-0.754 1.684-1.684 1.684h-53.101c-0.93 0-1.684-0.754-1.684-1.684v-2.279c0-0.93 0.754-1.684 1.684-1.684z"></path>
<path d="M1.684 13.177h53.101c0.93 0 1.684 0.754 1.684 1.684v2.279c0 0.93-0.754 1.684-1.684 1.684h-53.101c-0.93 0-1.684-0.754-1.684-1.684v-2.279c0-0.93 0.754-1.684 1.684-1.684z"></path>
<path d="M1.684 26.353h36.574c0.93 0 1.684 0.754 1.684 1.684v2.279c0 0.93-0.754 1.684-1.684 1.684h-36.574c-0.93 0-1.684-0.754-1.684-1.684v-2.279c0-0.93 0.754-1.684 1.684-1.684z"></path>
</symbol>
</defs>
</svg>
